<svg width="36" height="36" viewBox="0 0 36 36" fill="none" xmlns="http://www.w3.org/2000/svg">
<g clip-path="url(#clip0_3049_2869)">
<path d="M18 36C27.9411 36 36 27.9411 36 18C36 8.05888 27.9411 0 18 0C8.05888 0 0 8.05888 0 18C0 27.9411 8.05888 36 18 36Z" fill="#F75D09"/>
<g clip-path="url(#clip1_3049_2869)">
<path d="M18 10.6217C20.4031 10.6217 20.6877 10.6308 21.6367 10.6741C22.5142 10.7141 22.9908 10.8607 23.308 10.984C23.728 11.1473 24.0278 11.3423 24.3427 11.6572C24.6577 11.9722 24.8527 12.272 25.016 12.692C25.1392 13.0092 25.2859 13.4858 25.3259 14.3632C25.3692 15.3123 25.3783 15.5969 25.3783 18C25.3783 20.4031 25.3692 20.6878 25.3259 21.6368C25.2859 22.5143 25.1392 22.9908 25.016 23.308C24.8527 23.728 24.6577 24.0279 24.3427 24.3428C24.0278 24.6578 23.728 24.8528 23.308 25.016C22.9908 25.1392 22.5142 25.2859 21.6367 25.3259C20.6878 25.3692 20.4032 25.3784 18 25.3784C15.5967 25.3784 15.3121 25.3692 14.3632 25.3259C13.4857 25.2859 13.0092 25.1392 12.692 25.016C12.272 24.8528 11.9721 24.6578 11.6572 24.3428C11.3423 24.0278 11.1472 23.728 10.984 23.308C10.8607 22.9909 10.7141 22.5143 10.6741 21.6368C10.6308 20.6878 10.6216 20.4031 10.6216 18C10.6216 15.5969 10.6308 15.3123 10.6741 14.3633C10.7141 13.4858 10.8607 13.0092 10.984 12.692C11.1472 12.272 11.3423 11.9722 11.6572 11.6572C11.9722 11.3422 12.272 11.1473 12.692 10.984C13.0091 10.8607 13.4857 10.7141 14.3632 10.6741C15.3122 10.6308 15.5969 10.6217 18 10.6217ZM18 9C15.5557 9 15.2492 9.01034 14.2893 9.05414C13.3313 9.09787 12.6771 9.25003 12.1046 9.4725C11.5128 9.70249 11.0109 10.0102 10.5105 10.5106C10.0102 11.0109 9.70249 11.5128 9.4725 12.1046C9.24996 12.6771 9.09787 13.3314 9.05414 14.2893C9.01034 15.2492 9 15.5557 9 18C9 20.4443 9.01034 20.7508 9.05414 21.7107C9.09787 22.6687 9.24996 23.3229 9.4725 23.8954C9.70242 24.4872 10.0102 24.9891 10.5105 25.4895C11.0109 25.9898 11.5128 26.2975 12.1046 26.5275C12.6771 26.75 13.3313 26.9021 14.2893 26.9459C15.2492 26.9897 15.5557 27 18 27C20.4443 27 20.7508 26.9897 21.7107 26.9459C22.6686 26.9021 23.3229 26.75 23.8953 26.5275C24.4872 26.2976 24.9891 25.9898 25.4894 25.4895C25.9897 24.9891 26.2975 24.4872 26.5275 23.8954C26.75 23.3229 26.9021 22.6687 26.9459 21.7107C26.9897 20.7508 27 20.4443 27 18C27 15.5557 26.9897 15.2492 26.9459 14.2893C26.9021 13.3314 26.75 12.6771 26.5275 12.1047C26.2975 11.5128 25.9897 11.0109 25.4894 10.5106C24.9891 10.0102 24.4872 9.70242 23.8954 9.4725C23.3229 9.25003 22.6686 9.09787 21.7107 9.05414C20.7508 9.01034 20.4443 9 18 9ZM18 13.3784C15.4475 13.3784 13.3784 15.4477 13.3784 18C13.3784 20.5525 15.4475 22.6216 18 22.6216C20.5524 22.6216 22.6216 20.5525 22.6216 18C22.6216 15.4476 20.5524 13.3784 18 13.3784ZM18 21C16.3432 21 15 19.6568 15 18C15 16.3432 16.3432 15 18 15C19.6568 15 21 16.3432 21 18C21 19.6568 19.6568 21 18 21ZM23.8842 13.1958C23.8842 13.7923 23.4007 14.2758 22.8042 14.2758C22.2077 14.2758 21.7242 13.7923 21.7242 13.1958C21.7242 12.5993 22.2077 12.1158 22.8042 12.1158C23.4007 12.1158 23.8842 12.5993 23.8842 13.1958Z" fill="white"/>
</g>
</g>
<defs>
<clipPath id="clip0_3049_2869">
<rect width="36" height="36" fill="white"/>
</clipPath>
<clipPath id="clip1_3049_2869">
<rect width="18" height="18" fill="white" transform="translate(9 9)"/>
</clipPath>
</defs>
</svg>
