<?xml version="1.0" encoding="UTF-8"?>
<svg id="Layer_1" xmlns="http://www.w3.org/2000/svg" width="1024" height="350" xmlns:xlink="http://www.w3.org/1999/xlink" version="1.1" viewBox="0 0 1024 350">
  <!-- Generator: Adobe Illustrator 29.6.1, SVG Export Plug-In . SVG Version: 2.1.1 Build 9)  -->
  <defs>
    <linearGradient id="linear-gradient" x1="102.11" y1="71.03" x2="210.68" y2="291.73" gradientUnits="userSpaceOnUse">
      <stop offset=".11" stop-color="#b960e2"/>
      <stop offset=".14" stop-color="#a156d1"/>
      <stop offset=".19" stop-color="#7744b2"/>
      <stop offset=".24" stop-color="#56369a"/>
      <stop offset=".29" stop-color="#3e2c89"/>
      <stop offset=".34" stop-color="#2f267e"/>
      <stop offset=".38" stop-color="#2b247b"/>
      <stop offset=".85" stop-color="#b960e2"/>
      <stop offset="1" stop-color="#242277"/>
    </linearGradient>
    <clipPath id="clippath">
      <path d="M98.11,76.93c30.9,0,53.86,24.54,54.87,55.19.01.34,6.79,41.77,16.2,79.97,7.49,30.39,5.16,50.05-2.17,79.7-2.08,8.43-6.24-24.53-7.02-28.95-9.59-54.41-40.45-79.71-64.1-78.31-13.84.82-43.87-29.67-43.87-50.49,0-31.54,14.54-57.11,46.08-57.11Z" fill="none"/>
    </clipPath>
    <radialGradient id="radial-gradient" cx="6513.22" cy="175.14" fx="6513.22" fy="175.14" r="100.23" gradientTransform="translate(6656.44) rotate(-180) scale(1 -1)" gradientUnits="userSpaceOnUse">
      <stop offset="0" stop-color="#b960e2"/>
      <stop offset="1" stop-color="#242277"/>
    </radialGradient>
    <radialGradient id="radial-gradient1" cx="218.76" cy="67.3" fx="218.76" fy="67.3" r="236.86" gradientUnits="userSpaceOnUse">
      <stop offset="0" stop-color="#0085c7"/>
      <stop offset=".15" stop-color="#0081c4"/>
      <stop offset=".33" stop-color="#075ca4"/>
      <stop offset=".52" stop-color="#006eb3"/>
      <stop offset=".87" stop-color="#202e80"/>
      <stop offset="1" stop-color="#006eb3"/>
    </radialGradient>
    <clipPath id="clippath-1">
      <path d="M282.01,134.04c0,26.7-30.04,51.31-43.87,50.49-23.65-1.4-54.51,23.9-64.1,78.31-.78,4.42-4.93,37.38-7.02,28.95-7.33-29.65-9.65-49.31-2.17-79.7,9.41-38.2,16.19-79.63,16.2-79.97,1.01-30.65,23.97-55.19,54.87-55.19s46.08,25.57,46.08,57.11Z" fill="none"/>
    </clipPath>
    <radialGradient id="New_Gradient_Swatch_copy_2" data-name="New Gradient Swatch copy 2" cx="190.82" cy="175.14" fx="190.82" fy="175.14" r="100.23" gradientUnits="userSpaceOnUse">
      <stop offset="0" stop-color="#0085c7"/>
      <stop offset="1" stop-color="#242277"/>
    </radialGradient>
    <clipPath id="clippath-2">
      <circle cx="208.7" cy="175.81" r="20.14" fill="none"/>
    </clipPath>
    <clipPath id="clippath-3">
      <circle cx="125.33" cy="175.81" r="20.14" fill="none"/>
    </clipPath>
  </defs>
  <rect width="1024" height="350" fill="none"/>
  <g>
    <g>
      <path d="M356.72,198.72c-6.04,0-10.81-2.07-14.29-6.2-3.48-4.13-5.22-9.75-5.22-16.86,0-4.75.79-8.85,2.38-12.31,1.58-3.45,3.84-6.12,6.76-8.01,2.92-1.88,6.38-2.83,10.38-2.83s7.51.93,10.43,2.79c2.92,1.86,5.17,4.51,6.74,7.97,1.57,3.45,2.35,7.56,2.35,12.31s-.79,8.86-2.37,12.33c-1.58,3.47-3.84,6.14-6.76,8.01-2.92,1.87-6.38,2.81-10.38,2.81ZM356.72,191.72c3.71,0,6.63-1.43,8.74-4.3,2.12-2.86,3.17-6.82,3.17-11.85s-1.06-9.02-3.17-11.88c-2.12-2.85-5.03-4.27-8.74-4.27s-6.66,1.42-8.77,4.25c-2.1,2.84-3.15,6.83-3.15,11.98s1.05,8.97,3.15,11.81c2.1,2.84,5.02,4.25,8.77,4.25Z" fill="#fff"/>
      <path d="M387.55,197.68v-44.13h7.51v4.15c1.27-1.7,2.9-2.99,4.9-3.86,2-.88,4.22-1.32,6.67-1.32s4.89.57,6.97,1.71c2.09,1.14,3.71,2.73,4.86,4.77,1.35-2.07,3.14-3.67,5.38-4.79,2.23-1.12,4.7-1.68,7.41-1.68,4.75,0,8.53,1.46,11.33,4.38,2.81,2.92,4.21,6.87,4.21,11.85v28.93h-7.51v-26.77c0-3.68-.77-6.52-2.31-8.51-1.54-1.99-3.73-2.98-6.58-2.98-1.9,0-3.56.49-4.99,1.47-1.42.98-2.53,2.35-3.32,4.12-.79,1.77-1.19,3.82-1.19,6.15v26.51h-7.51v-26.77c0-3.77-.74-6.63-2.22-8.57-1.48-1.94-3.68-2.91-6.58-2.91s-5.25,1.02-6.95,3.07c-1.7,2.04-2.55,4.82-2.55,8.33v26.86h-7.51Z" fill="#fff"/>
      <path d="M461.82,197.68v-44.13h7.51v4.49c1.35-1.87,2.98-3.26,4.88-4.17s4.07-1.36,6.52-1.36c5.35,0,9.33,1.62,11.92,4.86,2.59,3.24,3.89,8.21,3.89,14.92v25.39h-7.51v-26.69c0-3.71-.83-6.57-2.48-8.57-1.66-2-3.99-3-7.02-3-3.37,0-5.91.96-7.62,2.87-1.71,1.91-2.57,4.76-2.57,8.53v26.86h-7.51Z" fill="#fff"/>
      <path d="M514.24,145.52c-1.3,0-2.4-.45-3.3-1.36s-1.36-2.01-1.36-3.3.45-2.5,1.36-3.43c.91-.94,2.01-1.4,3.3-1.4s2.48.47,3.39,1.4c.91.94,1.36,2.08,1.36,3.43s-.45,2.4-1.36,3.3c-.91.91-2.04,1.36-3.39,1.36ZM510.53,197.68v-44.13h7.51v44.13h-7.51Z" fill="#fff"/>
      <path d="M548.09,198.72c-3.8,0-7.07-.93-9.8-2.79-2.73-1.86-4.84-4.5-6.3-7.94-1.47-3.44-2.2-7.55-2.2-12.33s.75-8.94,2.25-12.39c1.5-3.45,3.63-6.11,6.41-7.97s6.11-2.79,10-2.79,7.02.88,9.67,2.63c2.65,1.76,4.58,4.3,5.79,7.64l-7.08,2.59c-.72-1.9-1.79-3.35-3.22-4.36-1.42-1.01-3.12-1.51-5.07-1.51-3.57,0-6.3,1.38-8.2,4.15-1.9,2.76-2.85,6.76-2.85,12s.94,9.07,2.81,11.83,4.53,4.15,7.99,4.15c2.22,0,4.11-.58,5.68-1.73,1.57-1.15,2.67-2.76,3.3-4.84l7,2.33c-1.07,3.63-3.01,6.42-5.83,8.38-2.82,1.96-6.26,2.94-10.32,2.94Z" fill="#fff"/>
      <path d="M575.55,197.68v-58.9l7.51-3.45v22.8c1.35-1.87,2.99-3.27,4.9-4.21,1.91-.94,4.08-1.4,6.5-1.4,3.83,0,6.9.79,9.22,2.38,2.32,1.58,3.99,3.85,5.03,6.8,1.04,2.95,1.55,6.48,1.55,10.6v25.39h-7.51v-26.69c0-3.45-.77-6.25-2.31-8.38-1.54-2.13-3.94-3.2-7.19-3.2s-5.91.96-7.62,2.87c-1.71,1.91-2.57,4.76-2.57,8.53v26.86h-7.51Z" fill="#fff"/>
      <path d="M637.39,198.72c-4.78,0-8.54-1.32-11.27-3.97-2.73-2.65-4.1-6.28-4.1-10.88,0-2.96.68-5.54,2.03-7.73,1.35-2.19,3.27-3.88,5.74-5.07,2.48-1.19,5.38-1.79,8.72-1.79,2.16,0,4.18.24,6.07.71,1.88.48,3.66,1.19,5.33,2.14v-3.11c0-3.43-.78-5.94-2.33-7.53s-3.97-2.4-7.25-2.4c-2.1,0-4.28.39-6.54,1.17-2.26.78-4.37,1.86-6.33,3.24l-2.16-6.3c2.22-1.47,4.74-2.61,7.58-3.43,2.83-.82,5.63-1.23,8.4-1.23,5.24,0,9.17,1.33,11.79,3.99,2.62,2.66,3.93,6.63,3.93,11.9v29.28h-7.08v-4.06c-1.73,1.64-3.67,2.9-5.83,3.78-2.16.88-4.39,1.32-6.69,1.32ZM638.51,192.16c2.04,0,4.07-.5,6.07-1.51,2-1.01,3.78-2.43,5.33-4.28v-7.6c-1.47-.92-3.14-1.64-5.01-2.16-1.87-.52-3.66-.78-5.35-.78-3.22,0-5.77.73-7.64,2.18-1.87,1.45-2.81,3.43-2.81,5.94s.83,4.53,2.5,6c1.67,1.47,3.97,2.2,6.91,2.2Z" fill="#fff"/>
      <path d="M671.15,197.68v-44.13h7.51v4.49c1.35-1.87,2.98-3.26,4.88-4.17,1.9-.91,4.07-1.36,6.52-1.36,5.35,0,9.33,1.62,11.92,4.86,2.59,3.24,3.89,8.21,3.89,14.92v25.39h-7.51v-26.69c0-3.71-.83-6.57-2.48-8.57-1.66-2-3.99-3-7.02-3-3.37,0-5.91.96-7.62,2.87-1.71,1.91-2.57,4.76-2.57,8.53v26.86h-7.51Z" fill="#fff"/>
      <path d="M720.89,197.68v-44.13h7.51v4.49c1.35-1.87,2.98-3.26,4.88-4.17,1.9-.91,4.07-1.36,6.52-1.36,5.35,0,9.33,1.62,11.92,4.86,2.59,3.24,3.89,8.21,3.89,14.92v25.39h-7.51v-26.69c0-3.71-.83-6.57-2.48-8.57-1.66-2-3.99-3-7.02-3-3.37,0-5.91.96-7.62,2.87-1.71,1.91-2.57,4.76-2.57,8.53v26.86h-7.51Z" fill="#fff"/>
      <path d="M787.82,198.72c-4.03,0-7.51-.99-10.45-2.98-2.94-1.99-5.2-4.72-6.78-8.2-1.58-3.48-2.38-7.47-2.38-11.96,0-4.87.82-9.02,2.46-12.46,1.64-3.44,3.93-6.07,6.87-7.88,2.94-1.81,6.36-2.72,10.28-2.72,3.31,0,6.35.74,9.11,2.22,2.76,1.48,4.97,3.77,6.63,6.87,1.65,3.09,2.48,7.06,2.48,11.9,0,.69-.02,1.49-.06,2.4-.04.91-.11,1.83-.19,2.79h-29.88c.29,2.68.95,5.02,1.99,7.04,1.04,2.02,2.4,3.59,4.1,4.73,1.7,1.14,3.7,1.71,6,1.71,1.87,0,3.61-.33,5.2-.99,1.6-.66,3.09-1.68,4.47-3.07l4.4,4.92c-1.64,1.64-3.68,3-6.11,4.08-2.43,1.08-5.15,1.62-8.14,1.62ZM775.81,172.12h22.63c0-2.5-.41-4.74-1.23-6.71-.82-1.97-2.02-3.52-3.61-4.64-1.58-1.12-3.51-1.68-5.79-1.68-3.2,0-5.94,1.04-8.23,3.11-2.29,2.07-3.55,5.38-3.78,9.93Z" fill="#fff"/>
      <path d="M817.7,197.68v-58.81l7.51-3.54v62.35h-7.51Z" fill="#fff"/>
      <path d="M882.72,198.55c-4.78,0-8.8-.91-12.07-2.72-3.27-1.81-5.89-4.22-7.88-7.23s-3.42-6.35-4.3-10.02c-.88-3.67-1.32-7.38-1.32-11.12,0-3.43.45-6.97,1.34-10.62.89-3.66,2.34-7.04,4.34-10.17,2-3.12,4.63-5.65,7.9-7.58,3.27-1.93,7.26-2.89,11.98-2.89,3.89,0,7.32.71,10.3,2.14,2.98,1.43,5.48,3.27,7.51,5.55,2.03,2.27,3.55,4.66,4.55,7.17l-12.18,5.44c-1.01-1.53-2-2.82-2.98-3.89-.98-1.06-2.04-1.88-3.2-2.44-1.15-.56-2.49-.84-4.02-.84-2.16,0-3.97.55-5.44,1.66-1.47,1.11-2.63,2.57-3.5,4.38s-1.49,3.78-1.88,5.89c-.39,2.12-.58,4.18-.58,6.2s.22,4.17.65,6.28c.43,2.12,1.11,4.05,2.03,5.81.92,1.76,2.1,3.17,3.54,4.25,1.44,1.08,3.17,1.62,5.18,1.62s3.91-.73,5.53-2.18c1.61-1.45,3.11-3.32,4.49-5.59l12.44,4.66c-1.47,3.17-3.24,5.97-5.31,8.42-2.07,2.45-4.52,4.36-7.34,5.74-2.82,1.38-6.09,2.07-9.8,2.07Z" fill="#fff"/>
      <path d="M907.08,197.68l20.38-31.09-19.26-29.36h16.06l11.23,17.01,11.14-17.01h16.15l-19.26,29.36,20.38,31.09h-16.06l-12.35-18.65-12.35,18.65h-16.06Z" fill="#fff"/>
    </g>
    <g>
      <g>
        <path d="M167.02,288.93c6.82-51.95,5.24-60.24-1.97-78.48-7.34-18.57-22.77-34.96-33.1-42.7-9.14-6.85-19.21-12.36-27.57-18.5-15.17-11.12-26.19-22.85-26.19-38.12,0-20.14,15.8-30.23,34.7-30.23,32.35,0,35.84,38.56,54.56,60.04,22.88,26.26,40.78,35.82,40.78,60.41s-24.56,34.74-41.21,34.74c-16.65,0-46.47,1.23-60.1-26.22,2.57,23.36,26.91,45.5,60.1,45.5,33.01,0,60.73-21.9,60.73-53.79,0-39.01-31.17-52.56-44.44-72.04-13.27-19.47-26.7-68.19-70.89-68.19-34.1,0-53.74,23.03-53.74,50.73,0,22.75,18.51,41.45,37.08,55.23,10.14,7.53,20.25,12.13,27.48,18.51,20.46,18.04,37.36,51.23,43.78,103.09Z" fill="url(#linear-gradient)"/>
        <g>
          <path d="M131.94,167.75c-9.14-6.85-19.21-12.36-27.57-18.5-15.17-11.12-26.19-22.85-26.19-38.12,0-20.14,15.8-30.23,34.7-30.23,32.35,0,35.84,38.56,54.56,60.04,22.88,26.26,40.78,35.82,40.78,60.41,0,22.58-20.71,32.98-36.99,34.53-.55-10.17-2.72-16.65-6.19-25.43-7.34-18.57-22.77-34.96-33.1-42.7Z" fill="none"/>
          <path d="M154.91,235.97c-8.24-22.77-19.3-39.23-31.68-50.14-7.23-6.37-17.34-10.98-27.48-18.51-18.57-13.78-37.08-32.48-37.08-55.23,0-27.7,19.64-50.73,53.74-50.73,44.19,0,57.62,48.71,70.89,68.19,13.27,19.47,44.44,33.03,44.44,72.04,0,30.68-25.65,52.1-56.98,53.69.61-7.98.76-14.18.48-19.4,16.27-1.55,36.99-11.95,36.99-34.53,0-24.59-17.9-34.14-40.78-60.41-18.72-21.48-22.21-60.04-54.56-60.04-18.9,0-34.7,10.08-34.7,30.23,0,15.27,11.02,27,26.19,38.12,8.36,6.13,18.43,11.65,27.57,18.5,10.33,7.75,25.76,24.13,33.1,42.7,3.47,8.79,5.64,15.27,6.19,25.43" fill="none" stroke="#0086c8" stroke-miterlimit="10" stroke-width="1.26"/>
          <path d="M106.92,209.88c10.74,21.62,31.52,25.44,48,26.09,2.15,5.94,4.11,12.32,5.85,19.14-29.96-2.57-51.43-23.37-53.84-45.23Z" fill="none" stroke="#0086c8" stroke-miterlimit="10" stroke-width="1.26"/>
          <path d="M170.76,255.28c-.67,8.73-1.9,19.58-3.74,33.65-1.52-12.31-3.65-23.56-6.26-33.82" fill="none" stroke="#0086c8" stroke-miterlimit="10" stroke-width="1.26"/>
        </g>
        <path d="M167.02,288.93c6.82-51.95,5.24-60.24-1.97-78.48-7.34-18.57-22.77-34.96-33.1-42.7-9.14-6.85-19.21-12.36-27.57-18.5-15.17-11.12-26.19-22.85-26.19-38.12,0-20.14,15.8-30.23,34.7-30.23,32.35,0,35.84,38.56,54.56,60.04,22.88,26.26,40.78,35.82,40.78,60.41s-24.56,34.74-41.21,34.74c-16.65,0-46.25,1.23-59.88-26.22,2.51,22.77,26.75,45.5,59.88,45.5,33.01,0,60.73-21.9,60.73-53.79,0-39.01-31.17-52.56-44.44-72.04-13.27-19.47-26.7-68.19-70.89-68.19-34.1,0-53.74,23.03-53.74,50.73,0,22.75,18.51,41.45,37.08,55.23,10.14,7.53,20.25,12.13,27.48,18.51,20.46,18.04,37.36,51.23,43.78,103.09Z" fill="none" stroke="#b960e2" stroke-miterlimit="10" stroke-width="1.26"/>
      </g>
      <g clip-path="url(#clippath)">
        <path d="M167.02,288.93c6.82-51.95,5.24-60.24-1.97-78.48-7.34-18.57-22.77-34.96-33.1-42.7-9.14-6.85-19.21-12.36-27.57-18.5-15.17-11.12-26.19-22.85-26.19-38.12,0-20.14,15.8-30.23,34.7-30.23,32.35,0,35.84,38.56,54.56,60.04,22.88,26.26,40.78,35.82,40.78,60.41s-24.56,34.74-41.21,34.74c-16.65,0-46.47,1.23-60.1-26.22,2.57,23.36,26.91,45.5,60.1,45.5,33.01,0,60.73-21.9,60.73-53.79,0-39.01-31.17-52.56-44.44-72.04-13.27-19.47-26.7-68.19-70.89-68.19-34.1,0-53.74,23.03-53.74,50.73,0,22.75,18.51,41.45,37.08,55.23,10.14,7.53,20.25,12.13,27.48,18.51,20.46,18.04,37.36,51.23,43.78,103.09Z" fill="url(#radial-gradient)"/>
        <path d="M167.02,288.93c6.82-51.95,5.24-60.24-1.97-78.48-7.34-18.57-22.77-34.96-33.1-42.7-9.14-6.85-19.21-12.36-27.57-18.5-15.17-11.12-26.19-22.85-26.19-38.12,0-20.14,15.8-30.23,34.7-30.23,32.35,0,35.84,38.56,54.56,60.04,22.88,26.26,40.78,35.82,40.78,60.41s-24.56,34.74-41.21,34.74c-16.65,0-46.47,1.23-60.1-26.22,2.57,23.36,26.91,45.5,60.1,45.5,33.01,0,60.73-21.9,60.73-53.79,0-39.01-31.17-52.56-44.44-72.04-13.27-19.47-26.7-68.19-70.89-68.19-34.1,0-53.74,23.03-53.74,50.73,0,22.75,18.51,41.45,37.08,55.23,10.14,7.53,20.25,12.13,27.48,18.51,20.46,18.04,37.36,51.23,43.78,103.09Z" fill="none" stroke="#b960e2" stroke-miterlimit="10" stroke-width="1.26"/>
      </g>
      <path d="M167.02,288.93c-6.82-51.95-5.24-60.24,1.97-78.48,7.34-18.57,22.77-34.96,33.1-42.7,9.14-6.85,19.21-12.36,27.57-18.5,15.17-11.12,26.19-22.85,26.19-38.12,0-20.14-15.8-30.23-34.7-30.23-32.35,0-35.84,38.56-54.56,60.04-22.88,26.26-40.78,35.82-40.78,60.41s24.56,34.74,41.21,34.74,46.47,1.23,60.1-26.22c-2.57,23.36-26.91,45.5-60.1,45.5s-60.73-21.9-60.73-53.79c0-39.01,31.17-52.56,44.44-72.04,13.27-19.47,26.7-68.19,70.89-68.19,34.1,0,53.74,23.03,53.74,50.73,0,22.75-18.51,41.45-37.08,55.23-10.14,7.53-20.25,12.13-27.48,18.51-20.46,18.04-37.36,51.23-43.78,103.09Z" fill="url(#radial-gradient1)"/>
      <g clip-path="url(#clippath-1)">
        <path d="M167.02,288.93c-6.82-51.95-5.24-60.24,1.97-78.48,7.34-18.57,22.77-34.96,33.1-42.7,9.14-6.85,19.21-12.36,27.57-18.5,15.17-11.12,26.19-22.85,26.19-38.12,0-20.14-15.8-30.23-34.7-30.23-32.35,0-35.84,38.56-54.56,60.04-22.88,26.26-40.78,35.82-40.78,60.41s24.56,34.74,41.21,34.74,46.47,1.23,60.1-26.22c-2.57,23.36-26.91,45.5-60.1,45.5s-60.73-21.9-60.73-53.79c0-39.01,31.17-52.56,44.44-72.04,13.27-19.47,26.7-68.19,70.89-68.19,34.1,0,53.74,23.03,53.74,50.73,0,22.75-18.51,41.45-37.08,55.23-10.14,7.53-20.25,12.13-27.48,18.51-20.46,18.04-37.36,51.23-43.78,103.09Z" fill="url(#New_Gradient_Swatch_copy_2)"/>
      </g>
      <g>
        <path d="M202.09,167.75c9.14-6.85,19.21-12.36,27.57-18.5,15.17-11.12,26.19-22.85,26.19-38.12,0-20.14-15.8-30.23-34.7-30.23-32.35,0-35.84,38.56-54.56,60.04-22.88,26.26-40.78,35.82-40.78,60.41,0,22.58,20.71,32.98,36.99,34.53.55-10.17,2.72-16.65,6.19-25.43,7.34-18.57,22.77-34.96,33.1-42.7Z" fill="none"/>
        <path d="M179.12,235.97c8.24-22.77,19.3-39.23,31.68-50.14,7.23-6.37,17.34-10.98,27.48-18.51,18.57-13.78,37.08-32.48,37.08-55.23,0-27.7-19.64-50.73-53.74-50.73-44.19,0-57.62,48.71-70.89,68.19-13.27,19.47-44.44,33.03-44.44,72.04,0,30.68,25.65,52.1,56.98,53.69-.61-7.98-.76-14.18-.48-19.4-16.27-1.55-36.99-11.95-36.99-34.53,0-24.59,17.9-34.14,40.78-60.41,18.72-21.48,22.21-60.04,54.56-60.04,18.9,0,34.7,10.08,34.7,30.23,0,15.27-11.02,27-26.19,38.12-8.36,6.13-18.43,11.65-27.57,18.5-10.33,7.75-25.76,24.13-33.1,42.7-3.47,8.79-5.64,15.27-6.19,25.43" fill="none" stroke="#0086c8" stroke-miterlimit="10" stroke-width="1.26"/>
        <path d="M227.12,209.88c-10.74,21.62-31.52,25.44-48,26.09-2.15,5.94-4.11,12.32-5.85,19.14,29.96-2.57,51.43-23.37,53.84-45.23Z" fill="none" stroke="#0086c8" stroke-miterlimit="10" stroke-width="1.26"/>
        <path d="M163.27,255.28c.67,8.73,1.9,19.58,3.74,33.65,1.52-12.31,3.65-23.56,6.26-33.82" fill="none" stroke="#0086c8" stroke-miterlimit="10" stroke-width="1.26"/>
      </g>
      <g clip-path="url(#clippath-2)">
        <g>
          <path d="M167.02,288.93c6.82-51.95,5.24-60.24-1.97-78.48-7.34-18.57-22.77-34.96-33.1-42.7-9.14-6.85-19.21-12.36-27.57-18.5-15.17-11.12-26.19-22.85-26.19-38.12,0-20.14,15.8-30.23,34.7-30.23,32.35,0,35.84,38.56,54.56,60.04,22.88,26.26,40.78,35.82,40.78,60.41s-24.56,34.74-41.21,34.74c-16.65,0-46.47,1.23-60.1-26.22,2.57,23.36,26.91,45.5,60.1,45.5,33.01,0,60.73-21.9,60.73-53.79,0-39.01-31.17-52.56-44.44-72.04-13.27-19.47-26.7-68.19-70.89-68.19-34.1,0-53.74,23.03-53.74,50.73,0,22.75,18.51,41.45,37.08,55.23,10.14,7.53,20.25,12.13,27.48,18.51,20.46,18.04,37.36,51.23,43.78,103.09Z" fill="url(#linear-gradient)"/>
          <g>
            <path d="M131.94,167.75c-9.14-6.85-19.21-12.36-27.57-18.5-15.17-11.12-26.19-22.85-26.19-38.12,0-20.14,15.8-30.23,34.7-30.23,32.35,0,35.84,38.56,54.56,60.04,22.88,26.26,40.78,35.82,40.78,60.41,0,22.58-20.71,32.98-36.99,34.53-.55-10.17-2.72-16.65-6.19-25.43-7.34-18.57-22.77-34.96-33.1-42.7Z" fill="none"/>
            <path d="M154.91,235.97c-8.24-22.77-19.3-39.23-31.68-50.14-7.23-6.37-17.34-10.98-27.48-18.51-18.57-13.78-37.08-32.48-37.08-55.23,0-27.7,19.64-50.73,53.74-50.73,44.19,0,57.62,48.71,70.89,68.19,13.27,19.47,44.44,33.03,44.44,72.04,0,30.68-25.65,52.1-56.98,53.69.61-7.98.76-14.18.48-19.4,16.27-1.55,36.99-11.95,36.99-34.53,0-24.59-17.9-34.14-40.78-60.41-18.72-21.48-22.21-60.04-54.56-60.04-18.9,0-34.7,10.08-34.7,30.23,0,15.27,11.02,27,26.19,38.12,8.36,6.13,18.43,11.65,27.57,18.5,10.33,7.75,25.76,24.13,33.1,42.7,3.47,8.79,5.64,15.27,6.19,25.43" fill="none" stroke="#0086c8" stroke-miterlimit="10" stroke-width="1.26"/>
            <path d="M106.92,209.88c10.74,21.62,31.52,25.44,48,26.09,2.15,5.94,4.11,12.32,5.85,19.14-29.96-2.57-51.43-23.37-53.84-45.23Z" fill="none" stroke="#0086c8" stroke-miterlimit="10" stroke-width="1.26"/>
            <path d="M170.76,255.28c-.67,8.73-1.9,19.58-3.74,33.65-1.52-12.31-3.65-23.56-6.26-33.82" fill="none" stroke="#0086c8" stroke-miterlimit="10" stroke-width="1.26"/>
          </g>
          <path d="M167.02,288.93c6.82-51.95,5.24-60.24-1.97-78.48-7.34-18.57-22.77-34.96-33.1-42.7-9.14-6.85-19.21-12.36-27.57-18.5-15.17-11.12-26.19-22.85-26.19-38.12,0-20.14,15.8-30.23,34.7-30.23,32.35,0,35.84,38.56,54.56,60.04,22.88,26.26,40.78,35.82,40.78,60.41s-24.56,34.74-41.21,34.74c-16.65,0-46.25,1.23-59.88-26.22,2.51,22.77,26.75,45.5,59.88,45.5,33.01,0,60.73-21.9,60.73-53.79,0-39.01-31.17-52.56-44.44-72.04-13.27-19.47-26.7-68.19-70.89-68.19-34.1,0-53.74,23.03-53.74,50.73,0,22.75,18.51,41.45,37.08,55.23,10.14,7.53,20.25,12.13,27.48,18.51,20.46,18.04,37.36,51.23,43.78,103.09Z" fill="none" stroke="#b960e2" stroke-miterlimit="10" stroke-width="1.26"/>
        </g>
        <g>
          <path d="M167.02,288.93c6.82-51.95,5.24-60.24-1.97-78.48-7.34-18.57-22.77-34.96-33.1-42.7-9.14-6.85-19.21-12.36-27.57-18.5-15.17-11.12-26.19-22.85-26.19-38.12,0-20.14,15.8-30.23,34.7-30.23,32.35,0,35.84,38.56,54.56,60.04,22.88,26.26,40.78,35.82,40.78,60.41s-24.56,34.74-41.21,34.74c-16.65,0-46.47,1.23-60.1-26.22,2.57,23.36,26.91,45.5,60.1,45.5,33.01,0,60.73-21.9,60.73-53.79,0-39.01-31.17-52.56-44.44-72.04-13.27-19.47-26.7-68.19-70.89-68.19-34.1,0-53.74,23.03-53.74,50.73,0,22.75,18.51,41.45,37.08,55.23,10.14,7.53,20.25,12.13,27.48,18.51,20.46,18.04,37.36,51.23,43.78,103.09Z" fill="url(#linear-gradient)"/>
          <path d="M167.02,288.93c6.82-51.95,5.24-60.24-1.97-78.48-7.34-18.57-22.77-34.96-33.1-42.7-9.14-6.85-19.21-12.36-27.57-18.5-15.17-11.12-26.19-22.85-26.19-38.12,0-20.14,15.8-30.23,34.7-30.23,32.35,0,35.84,38.56,54.56,60.04,22.88,26.26,40.78,35.82,40.78,60.41s-24.56,34.74-41.21,34.74c-16.65,0-46.25,1.23-59.88-26.22,2.51,22.77,26.75,45.5,59.88,45.5,33.01,0,60.73-21.9,60.73-53.79,0-39.01-31.17-52.56-44.44-72.04-13.27-19.47-26.7-68.19-70.89-68.19-34.1,0-53.74,23.03-53.74,50.73,0,22.75,18.51,41.45,37.08,55.23,10.14,7.53,20.25,12.13,27.48,18.51,20.46,18.04,37.36,51.23,43.78,103.09Z" fill="none" stroke="#b960e2" stroke-miterlimit="10" stroke-width="1.26"/>
        </g>
      </g>
      <g clip-path="url(#clippath-3)">
        <g>
          <path d="M167.02,288.93c6.82-51.95,5.24-60.24-1.97-78.48-7.34-18.57-22.77-34.96-33.1-42.7-9.14-6.85-19.21-12.36-27.57-18.5-15.17-11.12-26.19-22.85-26.19-38.12,0-20.14,15.8-30.23,34.7-30.23,32.35,0,35.84,38.56,54.56,60.04,22.88,26.26,40.78,35.82,40.78,60.41s-24.56,34.74-41.21,34.74c-16.65,0-46.47,1.23-60.1-26.22,2.57,23.36,26.91,45.5,60.1,45.5,33.01,0,60.73-21.9,60.73-53.79,0-39.01-31.17-52.56-44.44-72.04-13.27-19.47-26.7-68.19-70.89-68.19-34.1,0-53.74,23.03-53.74,50.73,0,22.75,18.51,41.45,37.08,55.23,10.14,7.53,20.25,12.13,27.48,18.51,20.46,18.04,37.36,51.23,43.78,103.09Z" fill="url(#radial-gradient)"/>
          <path d="M167.02,288.93c6.82-51.95,5.24-60.24-1.97-78.48-7.34-18.57-22.77-34.96-33.1-42.7-9.14-6.85-19.21-12.36-27.57-18.5-15.17-11.12-26.19-22.85-26.19-38.12,0-20.14,15.8-30.23,34.7-30.23,32.35,0,35.84,38.56,54.56,60.04,22.88,26.26,40.78,35.82,40.78,60.41s-24.56,34.74-41.21,34.74c-16.65,0-46.47,1.23-60.1-26.22,2.57,23.36,26.91,45.5,60.1,45.5,33.01,0,60.73-21.9,60.73-53.79,0-39.01-31.17-52.56-44.44-72.04-13.27-19.47-26.7-68.19-70.89-68.19-34.1,0-53.74,23.03-53.74,50.73,0,22.75,18.51,41.45,37.08,55.23,10.14,7.53,20.25,12.13,27.48,18.51,20.46,18.04,37.36,51.23,43.78,103.09Z" fill="none" stroke="#b960e2" stroke-miterlimit="10" stroke-width="1.26"/>
        </g>
      </g>
    </g>
  </g>
</svg>