<svg width="65" height="55" viewBox="0 0 65 55" fill="none" xmlns="http://www.w3.org/2000/svg">
<path d="M22.4999 25.0003L13.7498 25.0003C12.708 25.0003 11.8224 24.6358 11.0931 23.9065C10.3643 23.1773 9.99942 22.2919 9.99942 21.2499V20.0005C9.99942 17.2399 10.9762 14.8833 12.9295 12.9299C14.8828 10.9773 17.2397 10.0005 20.0001 10.0005L22.4999 10.0005C23.1769 10.0005 23.7626 9.75301 24.2576 9.2584C24.7523 8.76353 24.9997 8.17781 24.9997 7.50069V2.50023C24.9997 1.82325 24.7522 1.23698 24.2576 0.742107C23.7627 0.247917 23.177 0 22.4999 0L20.0001 0C17.2915 0 14.7074 0.527848 12.2461 1.58204C9.78516 2.63691 7.65653 4.06284 5.85941 5.85996C4.06243 7.65625 2.63691 9.78502 1.58218 12.2463C0.527437 14.7072 0 17.292 0 20.0003L0 47.4997C0 49.5842 0.728835 51.3541 2.18719 52.813C3.64568 54.271 5.41694 55 7.50014 55H22.5008C24.5839 55 26.3546 54.271 27.8133 52.813C29.2713 51.3541 30.0006 49.5842 30.0006 47.4997L30.0006 32.5004C30.0006 30.4164 29.2713 28.6465 27.8123 27.1874C26.3544 25.7295 24.583 25.0003 22.4999 25.0003Z" fill="#F45615"/>
<path d="M62.814 27.1874C61.356 25.7295 59.5852 25.0003 57.5015 25.0003L48.7516 25.0003C47.7104 25.0003 46.8239 24.6358 46.0959 23.9065C45.3664 23.1773 45.0022 22.2919 45.0022 21.2499V20.0005C45.0022 17.2399 45.9789 14.8833 47.9313 12.9299C49.8839 10.9773 52.2407 10.0005 55.0024 10.0005L57.5017 10.0005C58.1788 10.0005 58.7649 9.75301 59.2595 9.2584C59.7539 8.76353 60.0022 8.17781 60.0022 7.50069V2.50023C60.0022 1.82325 59.754 1.23698 59.2595 0.742107C58.7651 0.247917 58.1789 0 57.5017 0L55.0024 0C52.2923 0 49.7087 0.527848 47.2468 1.58204C44.7863 2.63691 42.6583 4.06284 40.8612 5.85996C39.0641 7.65625 37.6379 9.78502 36.5836 12.2463C35.5291 14.7072 35.001 17.292 35.001 20.0003L35.001 47.4997C35.001 49.5842 35.7305 51.3541 37.1884 52.813C38.6465 54.271 40.4174 55 42.5008 55H57.5007C59.5843 55 61.3551 54.271 62.813 52.813C64.272 51.3541 65 49.5842 65 47.4997V32.5004C65.0002 30.4162 64.272 28.6465 62.814 27.1874Z" fill="#F45615"/>
</svg>
