<svg width="36" height="36" viewBox="0 0 36 36" fill="none" xmlns="http://www.w3.org/2000/svg">
<g clip-path="url(#clip0_3049_2858)">
<path d="M18 36C27.9411 36 36 27.9411 36 18C36 8.05888 27.9411 0 18 0C8.05888 0 0 8.05888 0 18C0 27.9411 8.05888 36 18 36Z" fill="#F75D09"/>
<path d="M13.9735 11.4561C13.974 11.9425 13.8301 12.4181 13.5602 12.8228C13.2902 13.2274 12.9063 13.5429 12.457 13.7293C12.0076 13.9156 11.5131 13.9645 11.036 13.8697C10.5589 13.7749 10.1207 13.5407 9.7767 13.1968C9.43274 12.8528 9.19855 12.4146 9.10376 11.9375C9.00898 11.4603 9.05787 10.9658 9.24423 10.5165C9.4306 10.0672 9.74607 9.68329 10.1507 9.41333C10.5554 9.14338 11.031 8.99953 11.5174 9C12.1686 9.00063 12.793 9.25959 13.2534 9.72005C13.7139 10.1805 13.9729 10.8049 13.9735 11.4561Z" fill="white"/>
<path d="M12.8107 14.9375H10.2244C9.88824 14.9375 9.61572 15.21 9.61572 15.5462V26.3912C9.61572 26.7274 9.88824 26.9999 10.2244 26.9999H12.8107C13.1469 26.9999 13.4194 26.7274 13.4194 26.3912V15.5462C13.4194 15.21 13.1469 14.9375 12.8107 14.9375Z" fill="white"/>
<path d="M26.9408 21.19V26.4408C26.9408 26.5891 26.8819 26.7312 26.7771 26.8361C26.6723 26.9409 26.5301 26.9998 26.3818 26.9998H23.6061C23.4578 26.9998 23.3156 26.9409 23.2108 26.8361C23.106 26.7312 23.0471 26.5891 23.0471 26.4408V21.3535C23.0471 20.5932 23.2674 18.0377 21.0624 18.0377C19.3524 18.0377 19.0042 19.795 18.9308 20.5837V26.4527C18.9277 26.598 18.8681 26.7365 18.7646 26.8386C18.6612 26.9408 18.522 26.9986 18.3766 26.9998H15.6908C15.6173 27.0001 15.5445 26.9858 15.4765 26.9579C15.4086 26.9299 15.3468 26.8887 15.2949 26.8368C15.2429 26.7848 15.2017 26.723 15.1737 26.6551C15.1458 26.5871 15.1315 26.5143 15.1318 26.4408V15.4987C15.1315 15.4251 15.1458 15.3522 15.1737 15.2841C15.2017 15.216 15.2428 15.1541 15.2947 15.1019C15.3466 15.0498 15.4084 15.0084 15.4763 14.9802C15.5443 14.9519 15.6172 14.9374 15.6908 14.9374H18.3766C18.4511 14.9361 18.5251 14.9497 18.5943 14.9774C18.6635 15.005 18.7265 15.0462 18.7796 15.0984C18.8328 15.1507 18.875 15.213 18.9038 15.2817C18.9326 15.3504 18.9474 15.4242 18.9474 15.4987V16.4461C19.5821 15.4987 20.5247 14.7598 22.5308 14.7598C26.9668 14.7574 26.9408 18.9092 26.9408 21.19Z" fill="white"/>
</g>
<defs>
<clipPath id="clip0_3049_2858">
<rect width="36" height="36" fill="white"/>
</clipPath>
</defs>
</svg>
