<?xml version="1.0" encoding="UTF-8"?>
<svg id="Layer_1" xmlns="http://www.w3.org/2000/svg" width="512" height="512" xmlns:xlink="http://www.w3.org/1999/xlink" version="1.1" viewBox="0 0 512 512">
  <!-- Generator: Adobe Illustrator 29.6.1, SVG Export Plug-In . SVG Version: 2.1.1 Build 9)  -->
  <defs>
    <clipPath id="clippath">
      <rect width="512" height="512" rx="81.92" ry="81.92" fill="none"/>
    </clipPath>
    <radialGradient id="radial-gradient" cx="256" cy="256" fx="256" fy="256" r="256" gradientUnits="userSpaceOnUse">
      <stop offset="0" stop-color="#b960e2"/>
      <stop offset="1" stop-color="#242277"/>
    </radialGradient>
    <clipPath id="clippath-1">
      <rect x="256" width="256" height="512" fill="none"/>
    </clipPath>
    <radialGradient id="radial-gradient1" cx="256" cy="256" fx="256" fy="256" r="256" gradientUnits="userSpaceOnUse">
      <stop offset="0" stop-color="#0085c7"/>
      <stop offset="1" stop-color="#242277"/>
    </radialGradient>
  </defs>
  <g clip-path="url(#clippath)">
    <g>
      <rect width="512" height="512" fill="url(#radial-gradient)"/>
      <g clip-path="url(#clippath-1)">
        <rect width="512" height="512" fill="url(#radial-gradient1)"/>
      </g>
      <path d="M355.37,63.27c-50.76,0-79.21,35.32-99.37,70.28-20.16-34.97-48.61-70.28-99.37-70.28-62.06,0-97.81,41.91-97.81,92.33,0,41.41,33.69,75.44,67.48,100.53,9.55,7.09,19.07,12.76,27.88,18.18-5.37,12.56-8.71,27-8.71,44.17,0,5.22.42,10.29,1.21,15.2-.02-.04-.04-.08-.07-.12,1.83,16.59,9.74,32.8,22.23,46.45,1.49,1.67,3.05,3.29,4.66,4.86.01.01.03.03.04.04,17.98,17.47,43.11,28.58,71.03,30.97,4.76,18.68,8.64,39.12,11.42,61.55,2.78-22.43,6.66-42.87,11.42-61.55,27.92-2.39,53.05-13.5,71.03-30.97.01-.01.03-.03.04-.04,1.61-1.57,3.17-3.2,4.67-4.87,12.48-13.65,20.4-29.86,22.22-46.44-.02.04-.04.08-.06.12.79-4.91,1.21-9.98,1.21-15.2,0-17.17-3.34-31.61-8.71-44.17,8.8-5.43,18.32-11.09,27.88-18.18,33.79-25.09,67.48-59.12,67.48-100.53,0-50.42-35.74-92.33-97.81-92.33ZM141.98,223.22c-27.61-20.25-47.66-41.59-47.66-69.38,0-36.66,28.76-55.01,63.16-55.01,43.74,0,58.49,38.72,77.15,74.66-2.82,5.16-5.55,9.87-8.28,13.87-12.94,19-35.25,34.91-53.16,56.52-10.84-7.01-21.64-13.64-31.21-20.66ZM256.78,208.11c21.14,24.26,39.91,40.69,53.3,56.83-17.76,15.82-39.29,41.32-50.5,69.67-1.3,3.29-2.49,6.39-3.59,9.42-1.09-3.02-2.29-6.13-3.59-9.42-11.21-28.34-32.74-53.85-50.5-69.67,13.39-16.15,32.16-32.57,53.3-56.83.27-.31.52-.63.78-.94.26.31.51.63.78.94ZM183.87,296.98c18.91,19.09,35.78,45.84,48.92,81.03-25.79-7.02-51.8-25.83-51.8-59.97,0-7.76,1.04-14.65,2.87-21.07ZM279.2,378.01c13.14-35.2,30.02-61.95,48.92-81.03,1.83,6.41,2.87,13.31,2.87,21.07,0,34.14-26.01,52.95-51.79,59.97ZM370.02,223.22c-9.57,7.02-20.38,13.65-31.21,20.66-17.91-21.6-40.22-37.52-53.16-56.52-2.73-4-5.46-8.71-8.28-13.87,18.66-35.94,33.41-74.66,77.15-74.66,34.4,0,63.16,18.35,63.16,55.01,0,27.79-20.05,49.13-47.66,69.38Z" fill="#fff"/>
    </g>
  </g>
</svg>