<?xml version="1.0" encoding="UTF-8"?>
<svg id="Layer_1" xmlns="http://www.w3.org/2000/svg" width="1024" height="350" version="1.1" viewBox="0 0 1024 350">
  <!-- Generator: Adobe Illustrator 29.6.1, SVG Export Plug-In . SVG Version: 2.1.1 Build 9)  -->
  <g>
    <rect width="1024" height="350" fill="none"/>
    <g>
      <path d="M356.72,198.72c-6.04,0-10.81-2.07-14.29-6.2-3.48-4.13-5.22-9.75-5.22-16.86,0-4.75.79-8.85,2.38-12.31,1.58-3.45,3.84-6.12,6.76-8.01,2.92-1.88,6.38-2.83,10.38-2.83s7.51.93,10.43,2.79c2.92,1.86,5.17,4.51,6.74,7.97,1.57,3.45,2.35,7.56,2.35,12.31s-.79,8.86-2.37,12.33c-1.58,3.47-3.84,6.14-6.76,8.01-2.92,1.87-6.38,2.81-10.38,2.81ZM356.72,191.72c3.71,0,6.63-1.43,8.74-4.3,2.12-2.86,3.17-6.82,3.17-11.85s-1.06-9.02-3.17-11.88c-2.12-2.85-5.03-4.27-8.74-4.27s-6.66,1.42-8.77,4.25c-2.1,2.84-3.15,6.83-3.15,11.98s1.05,8.97,3.15,11.81c2.1,2.84,5.02,4.25,8.77,4.25Z"/>
      <path d="M387.55,197.68v-44.13h7.51v4.15c1.27-1.7,2.9-2.99,4.9-3.86,2-.88,4.22-1.32,6.67-1.32s4.89.57,6.97,1.71c2.09,1.14,3.71,2.73,4.86,4.77,1.35-2.07,3.14-3.67,5.38-4.79,2.23-1.12,4.7-1.68,7.41-1.68,4.75,0,8.53,1.46,11.33,4.38,2.81,2.92,4.21,6.87,4.21,11.85v28.93h-7.51v-26.77c0-3.68-.77-6.52-2.31-8.51-1.54-1.99-3.73-2.98-6.58-2.98-1.9,0-3.56.49-4.99,1.47-1.42.98-2.53,2.35-3.32,4.12-.79,1.77-1.19,3.82-1.19,6.15v26.51h-7.51v-26.77c0-3.77-.74-6.63-2.22-8.57-1.48-1.94-3.68-2.91-6.58-2.91s-5.25,1.02-6.95,3.07c-1.7,2.04-2.55,4.82-2.55,8.33v26.86h-7.51Z"/>
      <path d="M461.82,197.68v-44.13h7.51v4.49c1.35-1.87,2.98-3.26,4.88-4.17s4.07-1.36,6.52-1.36c5.35,0,9.33,1.62,11.92,4.86,2.59,3.24,3.89,8.21,3.89,14.92v25.39h-7.51v-26.69c0-3.71-.83-6.57-2.48-8.57-1.66-2-3.99-3-7.02-3-3.37,0-5.91.96-7.62,2.87-1.71,1.91-2.57,4.76-2.57,8.53v26.86h-7.51Z"/>
      <path d="M514.24,145.52c-1.3,0-2.4-.45-3.3-1.36s-1.36-2.01-1.36-3.3.45-2.5,1.36-3.43c.91-.94,2.01-1.4,3.3-1.4s2.48.47,3.39,1.4c.91.94,1.36,2.08,1.36,3.43s-.45,2.4-1.36,3.3c-.91.91-2.04,1.36-3.39,1.36ZM510.53,197.68v-44.13h7.51v44.13h-7.51Z"/>
      <path d="M548.09,198.72c-3.8,0-7.07-.93-9.8-2.79-2.73-1.86-4.84-4.5-6.3-7.94-1.47-3.44-2.2-7.55-2.2-12.33s.75-8.94,2.25-12.39c1.5-3.45,3.63-6.11,6.41-7.97s6.11-2.79,10-2.79,7.02.88,9.67,2.63c2.65,1.76,4.58,4.3,5.79,7.64l-7.08,2.59c-.72-1.9-1.79-3.35-3.22-4.36-1.42-1.01-3.12-1.51-5.07-1.51-3.57,0-6.3,1.38-8.2,4.15-1.9,2.76-2.85,6.76-2.85,12s.94,9.07,2.81,11.83,4.53,4.15,7.99,4.15c2.22,0,4.11-.58,5.68-1.73,1.57-1.15,2.67-2.76,3.3-4.84l7,2.33c-1.07,3.63-3.01,6.42-5.83,8.38-2.82,1.96-6.26,2.94-10.32,2.94Z"/>
      <path d="M575.55,197.68v-58.9l7.51-3.45v22.8c1.35-1.87,2.99-3.27,4.9-4.21,1.91-.94,4.08-1.4,6.5-1.4,3.83,0,6.9.79,9.22,2.38,2.32,1.58,3.99,3.85,5.03,6.8,1.04,2.95,1.55,6.48,1.55,10.6v25.39h-7.51v-26.69c0-3.45-.77-6.25-2.31-8.38-1.54-2.13-3.94-3.2-7.19-3.2s-5.91.96-7.62,2.87c-1.71,1.91-2.57,4.76-2.57,8.53v26.86h-7.51Z"/>
      <path d="M637.39,198.72c-4.78,0-8.54-1.32-11.27-3.97-2.73-2.65-4.1-6.28-4.1-10.88,0-2.96.68-5.54,2.03-7.73,1.35-2.19,3.27-3.88,5.74-5.07,2.48-1.19,5.38-1.79,8.72-1.79,2.16,0,4.18.24,6.07.71,1.88.48,3.66,1.19,5.33,2.14v-3.11c0-3.43-.78-5.94-2.33-7.53s-3.97-2.4-7.25-2.4c-2.1,0-4.28.39-6.54,1.17-2.26.78-4.37,1.86-6.33,3.24l-2.16-6.3c2.22-1.47,4.74-2.61,7.58-3.43,2.83-.82,5.63-1.23,8.4-1.23,5.24,0,9.17,1.33,11.79,3.99,2.62,2.66,3.93,6.63,3.93,11.9v29.28h-7.08v-4.06c-1.73,1.64-3.67,2.9-5.83,3.78-2.16.88-4.39,1.32-6.69,1.32ZM638.51,192.16c2.04,0,4.07-.5,6.07-1.51,2-1.01,3.78-2.43,5.33-4.28v-7.6c-1.47-.92-3.14-1.64-5.01-2.16-1.87-.52-3.66-.78-5.35-.78-3.22,0-5.77.73-7.64,2.18-1.87,1.45-2.81,3.43-2.81,5.94s.83,4.53,2.5,6c1.67,1.47,3.97,2.2,6.91,2.2Z"/>
      <path d="M671.15,197.68v-44.13h7.51v4.49c1.35-1.87,2.98-3.26,4.88-4.17,1.9-.91,4.07-1.36,6.52-1.36,5.35,0,9.33,1.62,11.92,4.86,2.59,3.24,3.89,8.21,3.89,14.92v25.39h-7.51v-26.69c0-3.71-.83-6.57-2.48-8.57-1.66-2-3.99-3-7.02-3-3.37,0-5.91.96-7.62,2.87-1.71,1.91-2.57,4.76-2.57,8.53v26.86h-7.51Z"/>
      <path d="M720.89,197.68v-44.13h7.51v4.49c1.35-1.87,2.98-3.26,4.88-4.17,1.9-.91,4.07-1.36,6.52-1.36,5.35,0,9.33,1.62,11.92,4.86,2.59,3.24,3.89,8.21,3.89,14.92v25.39h-7.51v-26.69c0-3.71-.83-6.57-2.48-8.57-1.66-2-3.99-3-7.02-3-3.37,0-5.91.96-7.62,2.87-1.71,1.91-2.57,4.76-2.57,8.53v26.86h-7.51Z"/>
      <path d="M787.82,198.72c-4.03,0-7.51-.99-10.45-2.98-2.94-1.99-5.2-4.72-6.78-8.2-1.58-3.48-2.38-7.47-2.38-11.96,0-4.87.82-9.02,2.46-12.46,1.64-3.44,3.93-6.07,6.87-7.88,2.94-1.81,6.36-2.72,10.28-2.72,3.31,0,6.35.74,9.11,2.22,2.76,1.48,4.97,3.77,6.63,6.87,1.65,3.09,2.48,7.06,2.48,11.9,0,.69-.02,1.49-.06,2.4-.04.91-.11,1.83-.19,2.79h-29.88c.29,2.68.95,5.02,1.99,7.04,1.04,2.02,2.4,3.59,4.1,4.73,1.7,1.14,3.7,1.71,6,1.71,1.87,0,3.61-.33,5.2-.99,1.6-.66,3.09-1.68,4.47-3.07l4.4,4.92c-1.64,1.64-3.68,3-6.11,4.08-2.43,1.08-5.15,1.62-8.14,1.62ZM775.81,172.12h22.63c0-2.5-.41-4.74-1.23-6.71-.82-1.97-2.02-3.52-3.61-4.64-1.58-1.12-3.51-1.68-5.79-1.68-3.2,0-5.94,1.04-8.23,3.11-2.29,2.07-3.55,5.38-3.78,9.93Z"/>
      <path d="M817.7,197.68v-58.81l7.51-3.54v62.35h-7.51Z"/>
      <path d="M882.72,198.55c-4.78,0-8.8-.91-12.07-2.72-3.27-1.81-5.89-4.22-7.88-7.23s-3.42-6.35-4.3-10.02c-.88-3.67-1.32-7.38-1.32-11.12,0-3.43.45-6.97,1.34-10.62.89-3.66,2.34-7.04,4.34-10.17,2-3.12,4.63-5.65,7.9-7.58,3.27-1.93,7.26-2.89,11.98-2.89,3.89,0,7.32.71,10.3,2.14,2.98,1.43,5.48,3.27,7.51,5.55,2.03,2.27,3.55,4.66,4.55,7.17l-12.18,5.44c-1.01-1.53-2-2.82-2.98-3.89-.98-1.06-2.04-1.88-3.2-2.44-1.15-.56-2.49-.84-4.02-.84-2.16,0-3.97.55-5.44,1.66-1.47,1.11-2.63,2.57-3.5,4.38s-1.49,3.78-1.88,5.89c-.39,2.12-.58,4.18-.58,6.2s.22,4.17.65,6.28c.43,2.12,1.11,4.05,2.03,5.81.92,1.76,2.1,3.17,3.54,4.25,1.44,1.08,3.17,1.62,5.18,1.62s3.91-.73,5.53-2.18c1.61-1.45,3.11-3.32,4.49-5.59l12.44,4.66c-1.47,3.17-3.24,5.97-5.31,8.42-2.07,2.45-4.52,4.36-7.34,5.74-2.82,1.38-6.09,2.07-9.8,2.07Z"/>
      <path d="M907.08,197.68l20.38-31.09-19.26-29.36h16.06l11.23,17.01,11.14-17.01h16.15l-19.26,29.36,20.38,31.09h-16.06l-12.35-18.65-12.35,18.65h-16.06Z"/>
    </g>
  </g>
  <path d="M221.62,61.36c-27.89,0-43.52,19.4-54.6,38.61-11.08-19.21-26.71-38.61-54.6-38.61-34.1,0-53.74,23.03-53.74,50.73,0,22.75,18.51,41.45,37.08,55.23,5.25,3.9,10.48,7.01,15.32,9.99-2.95,6.9-4.79,14.84-4.79,24.27,0,2.87.23,5.65.66,8.35-.01-.02-.02-.04-.04-.07,1.06,9.62,5.82,19.03,13.36,26.78.42.44.87.87,1.3,1.3.05.05.09.09.14.14,9.88,9.6,23.7,15.71,39.04,17.02,2.61,10.26,4.73,21.5,6.26,33.82,1.52-12.31,3.65-23.56,6.26-33.82,15.35-1.31,29.16-7.41,39.04-17.02.05-.05.1-.1.15-.15.44-.43.87-.85,1.29-1.29,7.54-7.75,12.3-17.16,13.36-26.78-.01.02-.02.04-.04.07.43-2.7.66-5.48.66-8.35,0-9.44-1.83-17.37-4.79-24.27,4.84-2.98,10.07-6.09,15.32-9.99,18.57-13.78,37.08-32.48,37.08-55.23,0-27.7-19.64-50.73-53.74-50.73ZM104.37,149.25c-15.17-11.12-26.19-22.85-26.19-38.12,0-20.14,15.8-30.23,34.7-30.23,24.03,0,32.14,21.28,42.39,41.03-1.55,2.84-3.05,5.42-4.55,7.62-7.11,10.43-19.35,19.17-29.2,31.04-5.96-3.86-11.9-7.47-17.16-11.33ZM167.45,140.94c11.61,13.33,21.94,22.35,29.29,31.22-9.76,8.69-21.59,22.71-27.75,38.28-.71,1.8-1.37,3.51-1.97,5.17-.6-1.66-1.26-3.37-1.97-5.17-6.16-15.58-17.99-29.59-27.75-38.28,7.36-8.87,17.68-17.89,29.29-31.22.15-.17.28-.35.43-.52.14.17.28.35.43.52ZM127.37,189.75c10.41,10.5,19.72,25.19,26.94,44.58-14.18-3.85-28.5-14.2-28.5-32.97,0-4.27.55-8.08,1.56-11.6ZM179.72,234.32c7.23-19.38,16.54-34.08,26.94-44.58,1.01,3.53,1.56,7.34,1.56,11.6,0,18.78-14.32,29.13-28.5,32.97ZM229.66,149.25c-5.27,3.86-11.2,7.48-17.16,11.33-9.84-11.86-22.09-20.6-29.2-31.04-1.5-2.2-3-4.78-4.55-7.62,10.25-19.75,18.36-41.03,42.39-41.03,18.9,0,34.7,10.08,34.7,30.23,0,15.27-11.02,27-26.19,38.12Z"/>
</svg>