<?xml version="1.0" encoding="UTF-8"?>
<svg id="Layer_1" xmlns="http://www.w3.org/2000/svg" width="1024" height="1066" xmlns:xlink="http://www.w3.org/1999/xlink" version="1.1" viewBox="0 0 1024 1066">
  <!-- Generator: Adobe Illustrator 29.6.1, SVG Export Plug-In . SVG Version: 2.1.1 Build 9)  -->
  <defs>
    <linearGradient id="linear-gradient" x1="312.27" y1="215.04" x2="644.29" y2="889.97" gradientUnits="userSpaceOnUse">
      <stop offset=".11" stop-color="#b960e2"/>
      <stop offset=".14" stop-color="#a156d1"/>
      <stop offset=".19" stop-color="#7744b2"/>
      <stop offset=".24" stop-color="#56369a"/>
      <stop offset=".29" stop-color="#3e2c89"/>
      <stop offset=".34" stop-color="#2f267e"/>
      <stop offset=".38" stop-color="#2b247b"/>
      <stop offset=".85" stop-color="#b960e2"/>
      <stop offset="1" stop-color="#242277"/>
    </linearGradient>
    <clipPath id="clippath">
      <path d="M300.03,233.08c94.49,0,164.71,75.04,167.81,168.78.03,1.05,20.76,127.73,49.54,244.56,22.89,92.95,15.78,153.07-6.63,243.74-6.37,25.77-19.07-75.03-21.46-88.54-29.33-166.41-123.7-243.77-196.02-239.49-42.31,2.51-134.17-90.74-134.17-154.41,0-96.46,44.46-174.65,140.92-174.65Z" fill="none"/>
    </clipPath>
    <radialGradient id="radial-gradient" cx="6182.6" cy="533.47" fx="6182.6" fy="533.47" r="159.01" gradientTransform="translate(12356.24 -494.93) rotate(-180) scale(1.93 -1.93)" gradientUnits="userSpaceOnUse">
      <stop offset="0" stop-color="#b960e2"/>
      <stop offset="1" stop-color="#242277"/>
    </radialGradient>
    <radialGradient id="radial-gradient1" cx="593.67" cy="362.38" fx="593.67" fy="362.38" r="375.75" gradientTransform="translate(-475.45 -494.93) scale(1.93)" gradientUnits="userSpaceOnUse">
      <stop offset="0" stop-color="#0085c7"/>
      <stop offset=".15" stop-color="#0081c4"/>
      <stop offset=".33" stop-color="#075ca4"/>
      <stop offset=".52" stop-color="#006eb3"/>
      <stop offset=".87" stop-color="#202e80"/>
      <stop offset="1" stop-color="#006eb3"/>
    </radialGradient>
    <clipPath id="clippath-1">
      <path d="M862.4,407.73c0,81.67-91.86,156.92-134.17,154.41-72.31-4.29-166.68,73.08-196.02,239.49-2.38,13.51-15.09,114.31-21.46,88.54-22.4-90.67-29.52-150.79-6.63-243.74,28.78-116.84,49.51-243.51,49.54-244.56,3.1-93.74,73.32-168.78,167.81-168.78s140.92,78.19,140.92,174.65Z" fill="none"/>
    </clipPath>
    <radialGradient id="New_Gradient_Swatch_copy_2" data-name="New Gradient Swatch copy 2" cx="549.36" cy="533.47" fx="549.36" fy="533.47" r="159.01" gradientTransform="translate(-475.45 -494.93) scale(1.93)" gradientUnits="userSpaceOnUse">
      <stop offset="0" stop-color="#0085c7"/>
      <stop offset="1" stop-color="#242277"/>
    </radialGradient>
    <clipPath id="clippath-2">
      <circle cx="638.23" cy="535.49" r="61.6" fill="none"/>
    </clipPath>
    <clipPath id="clippath-3">
      <circle cx="383.29" cy="535.49" r="61.6" fill="none"/>
    </clipPath>
  </defs>
  <rect width="1024" height="1066" fill="none"/>
  <g>
    <g>
      <path d="M510.76,881.4c20.85-158.87,16.03-184.22-6.03-239.99-22.46-56.8-69.63-106.9-101.23-130.59-27.96-20.96-58.74-37.81-84.32-56.57-46.39-34.02-80.08-69.89-80.08-116.58,0-61.6,48.33-92.43,106.13-92.43,98.93,0,109.59,117.91,166.84,183.61,69.98,80.32,124.71,109.53,124.71,184.73,0,75.2-75.12,106.24-126.02,106.24-50.9,0-142.1,3.76-183.79-80.17,7.86,71.44,82.28,139.16,183.79,139.16,100.95,0,185.72-66.97,185.72-164.5,0-119.29-95.33-160.75-135.91-220.31-40.57-59.56-81.66-208.53-216.78-208.53-104.28,0-164.34,70.42-164.34,155.15,0,69.58,56.62,126.76,113.39,168.91,31.01,23.03,61.92,37.11,84.03,56.59,62.58,55.16,114.26,156.68,133.89,315.27Z" fill="url(#linear-gradient)"/>
      <g>
        <path d="M403.5,510.82c-27.96-20.96-58.74-37.81-84.32-56.57-46.39-34.02-80.08-69.89-80.08-116.58,0-61.6,48.33-92.43,106.13-92.43,98.93,0,109.59,117.91,166.84,183.61,69.98,80.32,124.71,109.53,124.71,184.73,0,69.06-63.34,100.87-113.11,105.61-1.68-31.09-8.3-50.9-18.93-77.78-22.46-56.8-69.63-106.9-101.23-130.59Z" fill="none"/>
        <path d="M473.74,719.45c-25.2-69.63-59.04-119.97-96.88-153.32-22.11-19.49-53.01-33.57-84.03-56.59-56.77-42.15-113.39-99.34-113.39-168.91,0-84.72,60.06-155.15,164.34-155.15,135.13,0,176.21,148.97,216.78,208.53,40.57,59.56,135.91,101.01,135.91,220.31,0,93.81-78.44,159.34-174.27,164.2,1.87-24.4,2.32-43.35,1.45-59.32,49.77-4.74,113.11-36.55,113.11-105.61,0-75.2-54.73-104.41-124.71-184.73-57.24-65.7-67.91-183.61-166.84-183.61-57.81,0-106.13,30.84-106.13,92.43,0,46.69,33.69,82.56,80.08,116.58,25.58,18.76,56.36,35.61,84.32,56.57,31.6,23.69,78.78,73.79,101.23,130.59,10.63,26.88,17.25,46.69,18.93,77.78" fill="none" stroke="#0086c8" stroke-miterlimit="10" stroke-width="3.86"/>
        <path d="M326.97,639.65c32.84,66.11,96.39,77.81,146.78,79.8,6.58,18.18,12.56,37.68,17.88,58.53-91.62-7.87-157.29-71.46-164.65-138.33Z" fill="none" stroke="#0086c8" stroke-miterlimit="10" stroke-width="3.86"/>
        <path d="M522.21,778.51c-2.05,26.69-5.81,59.89-11.45,102.89-4.66-37.65-11.15-72.05-19.14-103.42" fill="none" stroke="#0086c8" stroke-miterlimit="10" stroke-width="3.86"/>
      </g>
      <path d="M510.76,881.4c20.85-158.87,16.03-184.22-6.03-239.99-22.46-56.8-69.63-106.9-101.23-130.59-27.96-20.96-58.74-37.81-84.32-56.57-46.39-34.02-80.08-69.89-80.08-116.58,0-61.6,48.33-92.43,106.13-92.43,98.93,0,109.59,117.91,166.84,183.61,69.98,80.32,124.71,109.53,124.71,184.73,0,75.2-75.12,106.24-126.02,106.24-50.9,0-141.43,3.76-183.12-80.17,7.67,69.64,81.8,139.16,183.12,139.16,100.95,0,185.72-66.97,185.72-164.5,0-119.29-95.33-160.75-135.91-220.31-40.57-59.56-81.66-208.53-216.78-208.53-104.28,0-164.34,70.42-164.34,155.15,0,69.58,56.62,126.76,113.39,168.91,31.01,23.03,61.92,37.11,84.03,56.59,62.58,55.16,114.26,156.68,133.89,315.27Z" fill="none" stroke="#b960e2" stroke-miterlimit="10" stroke-width="3.86"/>
    </g>
    <g clip-path="url(#clippath)">
      <path d="M510.76,881.4c20.85-158.87,16.03-184.22-6.03-239.99-22.46-56.8-69.63-106.9-101.23-130.59-27.96-20.96-58.74-37.81-84.32-56.57-46.39-34.02-80.08-69.89-80.08-116.58,0-61.6,48.33-92.43,106.13-92.43,98.93,0,109.59,117.91,166.84,183.61,69.98,80.32,124.71,109.53,124.71,184.73,0,75.2-75.12,106.24-126.02,106.24-50.9,0-142.1,3.76-183.79-80.17,7.86,71.44,82.28,139.16,183.79,139.16,100.95,0,185.72-66.97,185.72-164.5,0-119.29-95.33-160.75-135.91-220.31-40.57-59.56-81.66-208.53-216.78-208.53-104.28,0-164.34,70.42-164.34,155.15,0,69.58,56.62,126.76,113.39,168.91,31.01,23.03,61.92,37.11,84.03,56.59,62.58,55.16,114.26,156.68,133.89,315.27Z" fill="url(#radial-gradient)"/>
      <path d="M510.76,881.4c20.85-158.87,16.03-184.22-6.03-239.99-22.46-56.8-69.63-106.9-101.23-130.59-27.96-20.96-58.74-37.81-84.32-56.57-46.39-34.02-80.08-69.89-80.08-116.58,0-61.6,48.33-92.43,106.13-92.43,98.93,0,109.59,117.91,166.84,183.61,69.98,80.32,124.71,109.53,124.71,184.73,0,75.2-75.12,106.24-126.02,106.24-50.9,0-142.1,3.76-183.79-80.17,7.86,71.44,82.28,139.16,183.79,139.16,100.95,0,185.72-66.97,185.72-164.5,0-119.29-95.33-160.75-135.91-220.31-40.57-59.56-81.66-208.53-216.78-208.53-104.28,0-164.34,70.42-164.34,155.15,0,69.58,56.62,126.76,113.39,168.91,31.01,23.03,61.92,37.11,84.03,56.59,62.58,55.16,114.26,156.68,133.89,315.27Z" fill="none" stroke="#b960e2" stroke-miterlimit="10" stroke-width="3.86"/>
    </g>
    <path d="M510.76,881.4c-20.85-158.87-16.03-184.22,6.03-239.99,22.46-56.8,69.63-106.9,101.23-130.59,27.96-20.96,58.74-37.81,84.32-56.57,46.39-34.02,80.08-69.89,80.08-116.58,0-61.6-48.33-92.43-106.13-92.43-98.93,0-109.59,117.91-166.84,183.61-69.98,80.32-124.71,109.53-124.71,184.73s75.12,106.24,126.02,106.24,142.1,3.76,183.79-80.17c-7.86,71.44-82.28,139.16-183.79,139.16s-185.72-66.97-185.72-164.5c0-119.29,95.33-160.75,135.91-220.31,40.57-59.56,81.66-208.53,216.78-208.53,104.28,0,164.34,70.42,164.34,155.15,0,69.58-56.62,126.76-113.39,168.91-31.01,23.03-61.92,37.11-84.03,56.59-62.58,55.16-114.26,156.68-133.89,315.27Z" fill="url(#radial-gradient1)"/>
    <g clip-path="url(#clippath-1)">
      <path d="M510.76,881.4c-20.85-158.87-16.03-184.22,6.03-239.99,22.46-56.8,69.63-106.9,101.23-130.59,27.96-20.96,58.74-37.81,84.32-56.57,46.39-34.02,80.08-69.89,80.08-116.58,0-61.6-48.33-92.43-106.13-92.43-98.93,0-109.59,117.91-166.84,183.61-69.98,80.32-124.71,109.53-124.71,184.73s75.12,106.24,126.02,106.24,142.1,3.76,183.79-80.17c-7.86,71.44-82.28,139.16-183.79,139.16s-185.72-66.97-185.72-164.5c0-119.29,95.33-160.75,135.91-220.31,40.57-59.56,81.66-208.53,216.78-208.53,104.28,0,164.34,70.42,164.34,155.15,0,69.58-56.62,126.76-113.39,168.91-31.01,23.03-61.92,37.11-84.03,56.59-62.58,55.16-114.26,156.68-133.89,315.27Z" fill="url(#New_Gradient_Swatch_copy_2)"/>
    </g>
    <g>
      <path d="M618.02,510.82c27.96-20.96,58.74-37.81,84.32-56.57,46.39-34.02,80.08-69.89,80.08-116.58,0-61.6-48.33-92.43-106.13-92.43-98.93,0-109.59,117.91-166.84,183.61-69.98,80.32-124.71,109.53-124.71,184.73,0,69.06,63.34,100.87,113.11,105.61,1.68-31.09,8.3-50.9,18.93-77.78,22.46-56.8,69.63-106.9,101.23-130.59Z" fill="none"/>
      <path d="M547.78,719.45c25.2-69.63,59.04-119.97,96.88-153.32,22.11-19.49,53.01-33.57,84.03-56.59,56.77-42.15,113.39-99.34,113.39-168.91,0-84.72-60.06-155.15-164.34-155.15-135.13,0-176.21,148.97-216.78,208.53-40.57,59.56-135.91,101.01-135.91,220.31,0,93.81,78.44,159.34,174.27,164.2-1.87-24.4-2.32-43.35-1.45-59.32-49.77-4.74-113.11-36.55-113.11-105.61,0-75.2,54.73-104.41,124.71-184.73,57.24-65.7,67.91-183.61,166.84-183.61,57.81,0,106.13,30.84,106.13,92.43,0,46.69-33.69,82.56-80.08,116.58-25.58,18.76-56.36,35.61-84.32,56.57-31.6,23.69-78.78,73.79-101.23,130.59-10.63,26.88-17.25,46.69-18.93,77.78" fill="none" stroke="#0086c8" stroke-miterlimit="10" stroke-width="3.86"/>
      <path d="M694.55,639.65c-32.84,66.11-96.39,77.81-146.78,79.8-6.58,18.18-12.56,37.68-17.88,58.53,91.62-7.87,157.29-71.46,164.65-138.33Z" fill="none" stroke="#0086c8" stroke-miterlimit="10" stroke-width="3.86"/>
      <path d="M499.31,778.51c2.05,26.69,5.81,59.89,11.45,102.89,4.66-37.65,11.15-72.05,19.14-103.42" fill="none" stroke="#0086c8" stroke-miterlimit="10" stroke-width="3.86"/>
    </g>
    <g clip-path="url(#clippath-2)">
      <g>
        <path d="M510.76,881.4c20.85-158.87,16.03-184.22-6.03-239.99-22.46-56.8-69.63-106.9-101.23-130.59-27.96-20.96-58.74-37.81-84.32-56.57-46.39-34.02-80.08-69.89-80.08-116.58,0-61.6,48.33-92.43,106.13-92.43,98.93,0,109.59,117.91,166.84,183.61,69.98,80.32,124.71,109.53,124.71,184.73,0,75.2-75.12,106.24-126.02,106.24-50.9,0-142.1,3.76-183.79-80.17,7.86,71.44,82.28,139.16,183.79,139.16,100.95,0,185.72-66.97,185.72-164.5,0-119.29-95.33-160.75-135.91-220.31-40.57-59.56-81.66-208.53-216.78-208.53-104.28,0-164.34,70.42-164.34,155.15,0,69.58,56.62,126.76,113.39,168.91,31.01,23.03,61.92,37.11,84.03,56.59,62.58,55.16,114.26,156.68,133.89,315.27Z" fill="url(#linear-gradient)"/>
        <g>
          <path d="M403.5,510.82c-27.96-20.96-58.74-37.81-84.32-56.57-46.39-34.02-80.08-69.89-80.08-116.58,0-61.6,48.33-92.43,106.13-92.43,98.93,0,109.59,117.91,166.84,183.61,69.98,80.32,124.71,109.53,124.71,184.73,0,69.06-63.34,100.87-113.11,105.61-1.68-31.09-8.3-50.9-18.93-77.78-22.46-56.8-69.63-106.9-101.23-130.59Z" fill="none"/>
          <path d="M473.74,719.45c-25.2-69.63-59.04-119.97-96.88-153.32-22.11-19.49-53.01-33.57-84.03-56.59-56.77-42.15-113.39-99.34-113.39-168.91,0-84.72,60.06-155.15,164.34-155.15,135.13,0,176.21,148.97,216.78,208.53,40.57,59.56,135.91,101.01,135.91,220.31,0,93.81-78.44,159.34-174.27,164.2,1.87-24.4,2.32-43.35,1.45-59.32,49.77-4.74,113.11-36.55,113.11-105.61,0-75.2-54.73-104.41-124.71-184.73-57.24-65.7-67.91-183.61-166.84-183.61-57.81,0-106.13,30.84-106.13,92.43,0,46.69,33.69,82.56,80.08,116.58,25.58,18.76,56.36,35.61,84.32,56.57,31.6,23.69,78.78,73.79,101.23,130.59,10.63,26.88,17.25,46.69,18.93,77.78" fill="none" stroke="#0086c8" stroke-miterlimit="10" stroke-width="3.86"/>
          <path d="M326.97,639.65c32.84,66.11,96.39,77.81,146.78,79.8,6.58,18.18,12.56,37.68,17.88,58.53-91.62-7.87-157.29-71.46-164.65-138.33Z" fill="none" stroke="#0086c8" stroke-miterlimit="10" stroke-width="3.86"/>
          <path d="M522.21,778.51c-2.05,26.69-5.81,59.89-11.45,102.89-4.66-37.65-11.15-72.05-19.14-103.42" fill="none" stroke="#0086c8" stroke-miterlimit="10" stroke-width="3.86"/>
        </g>
        <path d="M510.76,881.4c20.85-158.87,16.03-184.22-6.03-239.99-22.46-56.8-69.63-106.9-101.23-130.59-27.96-20.96-58.74-37.81-84.32-56.57-46.39-34.02-80.08-69.89-80.08-116.58,0-61.6,48.33-92.43,106.13-92.43,98.93,0,109.59,117.91,166.84,183.61,69.98,80.32,124.71,109.53,124.71,184.73,0,75.2-75.12,106.24-126.02,106.24-50.9,0-141.43,3.76-183.12-80.17,7.67,69.64,81.8,139.16,183.12,139.16,100.95,0,185.72-66.97,185.72-164.5,0-119.29-95.33-160.75-135.91-220.31-40.57-59.56-81.66-208.53-216.78-208.53-104.28,0-164.34,70.42-164.34,155.15,0,69.58,56.62,126.76,113.39,168.91,31.01,23.03,61.92,37.11,84.03,56.59,62.58,55.16,114.26,156.68,133.89,315.27Z" fill="none" stroke="#b960e2" stroke-miterlimit="10" stroke-width="3.86"/>
      </g>
      <g>
        <path d="M510.76,881.4c20.85-158.87,16.03-184.22-6.03-239.99-22.46-56.8-69.63-106.9-101.23-130.59-27.96-20.96-58.74-37.81-84.32-56.57-46.39-34.02-80.08-69.89-80.08-116.58,0-61.6,48.33-92.43,106.13-92.43,98.93,0,109.59,117.91,166.84,183.61,69.98,80.32,124.71,109.53,124.71,184.73,0,75.2-75.12,106.24-126.02,106.24-50.9,0-142.1,3.76-183.79-80.17,7.86,71.44,82.28,139.16,183.79,139.16,100.95,0,185.72-66.97,185.72-164.5,0-119.29-95.33-160.75-135.91-220.31-40.57-59.56-81.66-208.53-216.78-208.53-104.28,0-164.34,70.42-164.34,155.15,0,69.58,56.62,126.76,113.39,168.91,31.01,23.03,61.92,37.11,84.03,56.59,62.58,55.16,114.26,156.68,133.89,315.27Z" fill="url(#linear-gradient)"/>
        <path d="M510.76,881.4c20.85-158.87,16.03-184.22-6.03-239.99-22.46-56.8-69.63-106.9-101.23-130.59-27.96-20.96-58.74-37.81-84.32-56.57-46.39-34.02-80.08-69.89-80.08-116.58,0-61.6,48.33-92.43,106.13-92.43,98.93,0,109.59,117.91,166.84,183.61,69.98,80.32,124.71,109.53,124.71,184.73,0,75.2-75.12,106.24-126.02,106.24-50.9,0-141.43,3.76-183.12-80.17,7.67,69.64,81.8,139.16,183.12,139.16,100.95,0,185.72-66.97,185.72-164.5,0-119.29-95.33-160.75-135.91-220.31-40.57-59.56-81.66-208.53-216.78-208.53-104.28,0-164.34,70.42-164.34,155.15,0,69.58,56.62,126.76,113.39,168.91,31.01,23.03,61.92,37.11,84.03,56.59,62.58,55.16,114.26,156.68,133.89,315.27Z" fill="none" stroke="#b960e2" stroke-miterlimit="10" stroke-width="3.86"/>
      </g>
    </g>
    <g clip-path="url(#clippath-3)">
      <g>
        <path d="M510.76,881.4c20.85-158.87,16.03-184.22-6.03-239.99-22.46-56.8-69.63-106.9-101.23-130.59-27.96-20.96-58.74-37.81-84.32-56.57-46.39-34.02-80.08-69.89-80.08-116.58,0-61.6,48.33-92.43,106.13-92.43,98.93,0,109.59,117.91,166.84,183.61,69.98,80.32,124.71,109.53,124.71,184.73,0,75.2-75.12,106.24-126.02,106.24-50.9,0-142.1,3.76-183.79-80.17,7.86,71.44,82.28,139.16,183.79,139.16,100.95,0,185.72-66.97,185.72-164.5,0-119.29-95.33-160.75-135.91-220.31-40.57-59.56-81.66-208.53-216.78-208.53-104.28,0-164.34,70.42-164.34,155.15,0,69.58,56.62,126.76,113.39,168.91,31.01,23.03,61.92,37.11,84.03,56.59,62.58,55.16,114.26,156.68,133.89,315.27Z" fill="url(#radial-gradient)"/>
        <path d="M510.76,881.4c20.85-158.87,16.03-184.22-6.03-239.99-22.46-56.8-69.63-106.9-101.23-130.59-27.96-20.96-58.74-37.81-84.32-56.57-46.39-34.02-80.08-69.89-80.08-116.58,0-61.6,48.33-92.43,106.13-92.43,98.93,0,109.59,117.91,166.84,183.61,69.98,80.32,124.71,109.53,124.71,184.73,0,75.2-75.12,106.24-126.02,106.24-50.9,0-142.1,3.76-183.79-80.17,7.86,71.44,82.28,139.16,183.79,139.16,100.95,0,185.72-66.97,185.72-164.5,0-119.29-95.33-160.75-135.91-220.31-40.57-59.56-81.66-208.53-216.78-208.53-104.28,0-164.34,70.42-164.34,155.15,0,69.58,56.62,126.76,113.39,168.91,31.01,23.03,61.92,37.11,84.03,56.59,62.58,55.16,114.26,156.68,133.89,315.27Z" fill="none" stroke="#b960e2" stroke-miterlimit="10" stroke-width="3.86"/>
      </g>
    </g>
  </g>
</svg>